<svg width="55" height="37" viewBox="0 0 55 37" fill="none" xmlns="http://www.w3.org/2000/svg">
<path d="M47.4989 29.1393C45.9105 29.4689 43.9698 29.4765 42.2182 29.16L41.6387 29.0552L42.5627 27.563C44.2371 24.8588 45.3027 22.8202 46.4367 20.152C47.5576 17.5142 48.3149 15.1625 48.8651 12.6101C49.1683 11.204 49.5442 8.91258 49.4665 8.94396C49.4481 8.95138 49.309 9.45909 49.1574 10.0722C47.5562 16.5466 44.219 23.2418 40.4984 27.4446C40.0834 27.9133 39.7169 28.2774 39.6839 28.2536C39.3297 27.9984 38.0427 26.3496 37.4032 25.3318C36.7492 24.2909 35.9988 22.4893 35.8212 21.534C35.4803 19.6992 35.6939 18.2081 36.5359 16.5449C37.5523 14.5373 39.1752 12.7388 42.0909 10.389C45.5131 7.63106 46.5481 6.63954 47.6465 5.06738C48.4252 3.95273 49.082 2.42909 49.3332 1.15499C49.4098 0.76627 49.4913 0.439398 49.5143 0.428577C49.5863 0.394734 50.3911 1.63931 50.8645 2.51657C51.5661 3.81685 52.154 5.16327 52.6352 6.57213C55.4379 14.7774 55.2117 22.5846 52.0617 26.3792C51.4997 27.056 50.8311 27.6516 50.1861 28.0501C49.5168 28.4634 48.2178 28.99 47.4995 29.139L47.4989 29.1393ZM30.2931 35.9696C27.2384 36.9023 24.3809 36.9041 21.6209 35.9749C18.6431 34.9727 15.5402 32.545 13.5695 29.6754C12.6939 28.4005 12.1622 27.383 10.8891 24.5458C10.2292 23.0753 9.54905 21.6525 9.31843 21.2602C7.5023 18.1707 5.17896 16.6712 0.926813 15.8448L0.291395 15.7212L0.641575 15.4368C1.17782 15.0012 2.36889 14.2231 3.13026 13.811C4.28568 13.1857 7.24043 12.0941 8.79482 11.7184C14.4717 10.346 20.8909 10.3089 26.4243 11.6167C29.5554 12.3566 32.574 13.6449 34.5934 15.1029L35.0975 15.467L34.5869 16.6327C34.0293 17.9061 33.8521 18.5565 33.7902 19.5573C33.6551 21.7459 34.6049 24.1255 36.5109 26.3728C36.7967 26.7098 37.0247 26.999 37.0175 27.0154C37.0103 27.0318 36.8245 26.8961 36.6045 26.7137C32.1837 23.0487 27.535 20.5339 22.5343 19.1023C21.2588 18.7372 18.5215 18.1415 18.3807 18.1983C18.3618 18.2059 19.0247 18.4967 19.8537 18.8443C23.8642 20.5264 27.2346 22.3994 30.2451 24.6186C31.3329 25.4206 33.2451 27.0915 34.0942 27.9819C35.2947 29.2408 36.5068 30.8651 36.889 31.7271L37.0796 32.157L36.5356 32.5986C34.8747 33.9472 32.2185 35.3814 30.2935 35.9691L30.2931 35.9696ZM37.164 27.2089C37.1229 27.1793 37.0983 27.1346 37.1092 27.1096C37.1201 27.0846 37.1664 27.1036 37.2121 27.152C37.3069 27.2523 37.2756 27.2893 37.164 27.2089Z" fill="#F88500"/>
</svg>
