<svg width="40" height="40" viewBox="0 0 40 40" fill="none" xmlns="http://www.w3.org/2000/svg">
<path d="M20 0C16.1238 0 12.3639 1.11055 9.12641 3.21148C8.77273 3.44102 8.67219 3.91367 8.90164 4.26734C9.13117 4.62102 9.60383 4.72148 9.9575 4.49211C12.9469 2.55219 16.4195 1.52672 20 1.52672C30.1862 1.52672 38.4733 9.81383 38.4733 20C38.4733 30.1862 30.1862 38.4733 20 38.4733C9.81383 38.4733 1.52672 30.1862 1.52672 20C1.52672 14.8057 3.73273 9.82156 7.57906 6.3257C7.89102 6.04211 7.91398 5.55937 7.63047 5.24734C7.34687 4.93531 6.86414 4.91227 6.55211 5.19594C2.3882 8.98055 0 14.3764 0 20C0 31.0281 8.97187 40 20 40C31.0281 40 40 31.0281 40 20C40 8.97187 31.0281 0 20 0Z" fill="#F88500"/>
<path d="M33.5871 10.9281C33.3528 10.5778 32.8786 10.4835 32.5283 10.7181C32.1778 10.9524 32.0838 11.4266 32.3183 11.7769C33.9478 14.2129 34.8091 17.0563 34.8091 20C34.8091 28.1658 28.1658 34.8092 20 34.8092C11.8342 34.8092 5.19084 28.1658 5.19084 20C5.19084 11.8343 11.8342 5.1909 20 5.1909C23.8954 5.1909 27.5737 6.69106 30.3572 9.41504C30.6586 9.71004 31.1419 9.70473 31.4366 9.4034C31.7316 9.10215 31.7263 8.61879 31.425 8.32395C28.3544 5.31903 24.297 3.66418 20 3.66418C10.9923 3.66418 3.66412 10.9924 3.66412 20C3.66412 29.0077 10.9923 36.3359 20 36.3359C29.0076 36.3359 36.3358 29.0077 36.3358 20C36.3358 16.7531 35.3853 13.6159 33.5871 10.9281Z" fill="#F88500"/>
<path d="M20 8.34619C17.4844 8.34619 15.089 9.1351 13.0727 10.6278C12.7337 10.8786 12.6625 11.3566 12.9133 11.6954C13.1643 12.0346 13.6423 12.1057 13.9809 11.8548C15.7325 10.5582 17.8138 9.87291 20 9.87291C25.5841 9.87291 30.1272 14.416 30.1272 20.0001C30.1272 24.6577 26.9759 28.6981 22.4639 29.8256C22.0548 29.9278 21.8062 30.3422 21.9084 30.7513C21.9951 31.0982 22.3064 31.3298 22.6484 31.3298C22.7097 31.3298 22.772 31.3224 22.8342 31.3069C28.0271 30.0091 31.6539 25.3596 31.6539 20.0001C31.6539 13.574 26.426 8.34619 20 8.34619Z" fill="#F88500"/>
<path d="M13.5938 27.8439C11.229 25.9101 9.87285 23.0511 9.87285 20C9.87285 17.8885 10.5159 15.8654 11.7326 14.1496C11.9765 13.8057 11.8953 13.3292 11.5514 13.0853C11.2076 12.8414 10.731 12.9226 10.4872 13.2665C9.08644 15.2419 8.34613 17.5704 8.34613 20C8.34613 23.511 9.90652 26.8007 12.6274 29.0257C12.7692 29.1417 12.9403 29.1982 13.1102 29.1982C13.3313 29.1982 13.5506 29.1026 13.7015 28.9181C13.9684 28.5916 13.9201 28.1107 13.5938 27.8439Z" fill="#F88500"/>
<path d="M26.6158 19.2366C26.1941 19.2366 25.8524 19.5783 25.8524 20C25.8524 23.2271 23.2271 25.8524 20 25.8524C16.7729 25.8524 14.1476 23.2271 14.1476 20C14.1476 16.7729 16.7729 14.1476 20 14.1476C20.4217 14.1476 20.7633 13.8059 20.7633 13.3842C20.7633 12.9626 20.4217 12.6208 20 12.6208C15.9311 12.6208 12.6208 15.9311 12.6208 20C12.6208 24.0689 15.9311 27.3791 20 27.3791C24.0689 27.3791 27.3791 24.0689 27.3791 20C27.3791 19.5783 27.0374 19.2366 26.6158 19.2366Z" fill="#F88500"/>
<path d="M20 16.8958C18.2883 16.8958 16.8957 18.2884 16.8957 20.0001C16.8957 21.7117 18.2883 23.1044 20 23.1044C21.7116 23.1044 23.1043 21.7117 23.1043 20.0001C23.1043 18.2884 21.7116 16.8958 20 16.8958ZM20 21.5776C19.1301 21.5776 18.4224 20.87 18.4224 20.0001C18.4224 19.1301 19.1301 18.4225 20 18.4225C20.8699 18.4225 21.5776 19.1301 21.5776 20.0001C21.5776 20.87 20.8699 21.5776 20 21.5776Z" fill="#F88500"/>
</svg>
