<svg width="53" height="38" viewBox="0 0 53 38" fill="none" xmlns="http://www.w3.org/2000/svg">
<path d="M45.3262 29.3076C43.8086 29.654 41.9591 29.6859 40.2937 29.3944L39.7427 29.2979L40.6408 27.8083C42.2682 25.1088 43.3077 23.0763 44.4198 20.4193C45.519 17.7926 46.2683 15.4538 46.8227 12.9188C47.1282 11.5223 47.5133 9.24796 47.4389 9.28002C47.4213 9.2876 47.2828 9.79221 47.1311 10.4014C45.529 16.8342 42.27 23.5075 38.675 27.717C38.274 28.1864 37.9205 28.5516 37.8893 28.5285C37.5547 28.2801 36.3477 26.6632 35.7503 25.6631C35.1393 24.6403 34.4454 22.8654 34.2875 21.9214C33.9841 20.1084 34.2052 18.6288 35.0272 16.9708C36.0194 14.9696 37.5871 13.1679 40.3933 10.8039C43.687 8.02927 44.685 7.03421 45.7502 5.46323C46.5053 4.34943 47.1492 2.83206 47.4036 1.56695C47.4812 1.18097 47.5627 0.856189 47.5847 0.845183C47.6538 0.810758 48.406 2.03337 48.8468 2.89633C49.5001 4.17541 50.0445 5.50161 50.4865 6.89101C53.0607 14.9829 52.7533 22.7185 49.7067 26.5165C49.1633 27.194 48.5191 27.7923 47.8997 28.195C47.2571 28.6128 46.013 29.1507 45.3267 29.3073L45.3262 29.3076ZM28.8495 36.2888C25.9275 37.251 23.2045 37.2887 20.5853 36.4029C17.7594 35.4477 14.831 33.0821 12.9868 30.2646C12.1674 29.0128 11.6727 28.0117 10.4929 25.2176C9.88136 23.7693 9.24998 22.3687 9.03483 21.983C7.34051 18.9457 5.14413 17.4897 1.10178 16.7245L0.49771 16.6101L0.834763 16.324C1.3509 15.8858 2.49509 15.1002 3.22549 14.6825C4.33392 14.0486 7.1625 12.9303 8.64817 12.5386C14.0741 11.1081 20.1918 10.9908 25.4494 12.2166C28.4245 12.9101 31.2859 14.1483 33.1931 15.567L33.6692 15.9213L33.1689 17.0823C32.6225 18.3506 32.446 18.997 32.3753 19.9891C32.2207 22.1585 33.0979 24.5034 34.8877 26.7054C35.1561 27.0356 35.37 27.3192 35.3629 27.3356C35.3559 27.3519 35.1804 27.2198 34.9729 27.0419C30.8032 23.4673 26.4029 21.0349 21.6543 19.6797C20.4431 19.3341 17.8416 18.7784 17.7068 18.8365C17.6887 18.8443 18.317 19.1239 19.1029 19.4579C22.9049 21.0735 26.0946 22.8864 28.9374 25.0467C29.9646 25.8273 31.7671 27.4583 32.5658 28.3295C33.695 29.5613 34.831 31.155 35.185 32.0039L35.3616 32.4273L34.838 32.8716C33.2393 34.2282 30.6912 35.6821 28.8499 36.2883L28.8495 36.2888ZM35.5002 27.5254C35.4614 27.4966 35.4385 27.4526 35.4492 27.4277C35.4599 27.4027 35.5038 27.4211 35.5467 27.4684C35.6359 27.5666 35.6057 27.6036 35.5002 27.5254Z" fill="#F88500"/>
</svg>
